<?xml version="1.0" encoding="utf-8"?>
<!-- Generator: Adobe Illustrator 19.0.1, SVG Export Plug-In . SVG Version: 6.00 Build 0)  -->
<svg version="1.1" id="Слой_1" xmlns="http://www.w3.org/2000/svg" xmlns:xlink="http://www.w3.org/1999/xlink" x="0px" y="0px"
	 viewBox="0 0 295.6 225" style="enable-background:new 0 0 295.6 225;" xml:space="preserve">
<style type="text/css">
	.st0{clip-path:url(#SVGID_2_);fill:#FFFFFF;}
</style>
<g>
	<defs>
		<rect id="SVGID_1_" width="295.6" height="225"/>
	</defs>
	<clipPath id="SVGID_2_">
		<use xlink:href="#SVGID_1_"  style="overflow:visible;"/>
	</clipPath>
	<path class="st0" d="M257.8,210.9c0,2.6-2.1,4.7-4.7,4.7H14.1c-2.6,0-4.7-2.1-4.7-4.7V75h248.4v50.9h9.4V42.2
		c0-7.8-6.3-14.1-14.1-14.1h-18.8V14.1c0-7.8-6.3-14.1-14.1-14.1c-7.8,0-14.1,6.3-14.1,14.1v14.1H60.9V14.1C60.9,6.3,54.6,0,46.9,0
		S32.8,6.3,32.8,14.1v14.1H14.1C6.3,28.1,0,34.4,0,42.2v168.7c0,7.8,6.3,14.1,14.1,14.1h239.1c7.8,0,14.1-6.3,14.1-14.1v-9.4h-9.4
		L257.8,210.9L257.8,210.9z M215.6,14.1c0-2.6,2.1-4.7,4.7-4.7s4.7,2.1,4.7,4.7v18.8c0,2.6-2.1,4.7-4.7,4.7c-2.6,0-4.7-2.1-4.7-4.7
		L215.6,14.1L215.6,14.1z M42.2,14.1c0-2.6,2.1-4.7,4.7-4.7s4.7,2.1,4.7,4.7v18.8c0,2.6-2.1,4.7-4.7,4.7s-4.7-2.1-4.7-4.7V14.1z
		 M14.1,37.5h19.6c1.9,5.4,7.1,9.4,13.2,9.4s11.3-3.9,13.2-9.4h147c1.9,5.4,7.1,9.4,13.2,9.4c6.1,0,11.3-3.9,13.2-9.4h19.6
		c2.6,0,4.7,2.1,4.7,4.7v23.4H9.4V42.2C9.4,39.6,11.5,37.5,14.1,37.5"/>
	<path class="st0" d="M250.8,211.3c-24.7,0-44.8-20.1-44.8-44.8c0-24.7,20.1-44.8,44.8-44.8c24.7,0,44.8,20.1,44.8,44.8
		C295.6,191.1,275.5,211.3,250.8,211.3 M250.8,131.6c-19.2,0-34.8,15.6-34.8,34.8c0,19.2,15.6,34.8,34.8,34.8
		c19.2,0,34.8-15.6,34.8-34.8C285.6,147.2,270,131.6,250.8,131.6"/>
	<polygon class="st0" points="232.3,164.9 227.1,172.7 244.7,184.4 289.6,129.5 282.3,123.6 242.8,171.9 	"/>
	<path class="st0" d="M56.3,89.1H23.4v28.1h32.8V89.1z M46.9,107.8H32.8v-9.4h14.1L46.9,107.8z"/>
	<path class="st0" d="M103.1,89.1H70.3v28.1h32.8L103.1,89.1L103.1,89.1z M93.8,107.8H79.7v-9.4h14.1V107.8z"/>
	<path class="st0" d="M150,89.1h-32.8v28.1H150V89.1z M140.6,107.8h-14.1v-9.4h14.1V107.8z"/>
	<path class="st0" d="M196.9,89.1h-32.8v28.1h32.8V89.1z M187.5,107.8h-14.1v-9.4h14.1V107.8z"/>
	<path class="st0" d="M243.8,89.1h-32.8v28.1h32.8V89.1z M234.4,107.8h-14.1v-9.4h14.1V107.8z"/>
	<path class="st0" d="M56.3,131.3H23.4v28.1h32.8V131.3z M46.9,150H32.8v-9.4h14.1L46.9,150z"/>
	<path class="st0" d="M103.1,131.3H70.3v28.1h32.8L103.1,131.3L103.1,131.3z M93.8,150H79.7v-9.4h14.1V150z"/>
	<path class="st0" d="M150,131.3h-32.8v28.1H150V131.3z M140.6,150h-14.1v-9.4h14.1V150z"/>
	<path class="st0" d="M196.9,131.3h-32.8v28.1h32.8V131.3z M187.5,150h-14.1v-9.4h14.1V150z"/>
	<path class="st0" d="M23.4,201.6h32.8v-28.1H23.4V201.6z M32.8,182.8h14.1v9.4H32.8V182.8z"/>
	<path class="st0" d="M70.3,201.6h32.8v-28.1H70.3V201.6z M79.7,182.8h14.1v9.4H79.7V182.8z"/>
	<path class="st0" d="M117.2,201.6H150v-28.1h-32.8L117.2,201.6L117.2,201.6z M126.6,182.8h14.1v9.4h-14.1V182.8z"/>
	<path class="st0" d="M164.1,201.6h32.8v-28.1h-32.8V201.6z M173.4,182.8h14.1v9.4h-14.1L173.4,182.8L173.4,182.8z"/>
</g>
</svg>
