<?xml version="1.0" encoding="utf-8"?>
<!-- Generator: Adobe Illustrator 19.0.1, SVG Export Plug-In . SVG Version: 6.00 Build 0)  -->
<svg version="1.1" id="Слой_1" xmlns="http://www.w3.org/2000/svg" xmlns:xlink="http://www.w3.org/1999/xlink" x="0px" y="0px"
	 viewBox="0 0 290.6 265.3" style="enable-background:new 0 0 290.6 265.3;" xml:space="preserve">
<style type="text/css">
	.st0{clip-path:url(#SVGID_2_);fill:#FFFFFF;}
</style>
<g>
	<defs>
		<rect id="SVGID_1_" width="290.6" height="265.3"/>
	</defs>
	<clipPath id="SVGID_2_">
		<use xlink:href="#SVGID_1_"  style="overflow:visible;"/>
	</clipPath>
	<path class="st0" d="M276.7,129.3h-9.5c-0.2-18.6-9.4-35-23.4-45.3V56.7c0-9-7.4-16.4-16.4-16.4c-19.6,0-35.8,14.2-39.2,32.8h-14.7
		v9.4h36.8c26.2,0,47.6,21.3,47.6,47.6v54.9c0,26.2-21.3,47.6-47.6,47.6h-41.5h-9.4H89.7c-26.2,0-47.6-21.3-47.6-47.6V130
		c0-24.5,18.3-44.8,42.7-47.3l-1-9.3c-29.1,3-51.1,27.3-51.1,56.6v13.4h-5.6c0.5-1.5,0.9-3,0.9-4.7c0-7.8-6.3-14.1-14.1-14.1
		S0,130.9,0,138.7c0,7.8,6.3,14.1,14.1,14.1h18.8v32.1c0,20.9,11.3,39.1,28.1,49v19.6c0,6.5,5.3,11.8,11.7,11.8h46.8
		c6.5,0,11.7-5.3,11.7-11.7v-11.7h28.1v11.7c0,6.5,5.3,11.7,11.7,11.7h46.8c6.5,0,11.7-5.3,11.7-11.7v-15.2
		c15.8-5.8,28.3-18.2,34-34h13c7.7,0,14-6.3,14-14v-47.1C290.6,135.6,284.4,129.3,276.7,129.3 M197.7,73.1
		c3.2-13.4,15.2-23.4,29.6-23.4c3.9,0,7,3.2,7,7v21.8c-7.3-3.4-15.5-5.4-24.1-5.4L197.7,73.1L197.7,73.1z M9.4,138.7
		c0-2.6,2.1-4.7,4.7-4.7c2.6,0,4.7,2.1,4.7,4.7c0,2.6-2.1,4.7-4.7,4.7C11.5,143.4,9.4,141.3,9.4,138.7 M121.9,253.5
		c0,1.3-1.1,2.4-2.4,2.4H72.7c-1.3,0-2.4-1.1-2.4-2.4v-15.2c6.1,2.2,12.6,3.5,19.4,3.5h32.1L121.9,253.5z M220.3,253.5
		c0,1.3-1.1,2.4-2.4,2.4h-46.8c-1.3,0-2.4-1.1-2.4-2.4v-11.7h41.5c3.4,0,6.8-0.4,10.1-0.9V253.5z M281.3,190.3
		c0,2.5-2.1,4.6-4.6,4.6h-10.4c0.6-3.3,0.9-6.6,0.9-10.1v-46.2h9.5c2.5,0,4.6,2.1,4.6,4.6V190.3z"/>
	<rect y="110.6" class="st0" width="9.4" height="28.1"/>
	<path class="st0" d="M126.6,109.9c-30.3,0-54.9-24.6-54.9-54.9S96.3,0,126.6,0s54.9,24.6,54.9,54.9S156.9,109.9,126.6,109.9
		 M126.6,9c-25.3,0-45.9,20.6-45.9,45.9s20.6,45.9,45.9,45.9s45.9-20.6,45.9-45.9S151.9,9,126.6,9"/>
	<path class="st0" d="M229.7,124.6c-1.5,0-3.1-0.8-4-2.2c-0.2-0.3-4.9-7.2-14.8-7.2c-10.1,0-14.8,7.1-14.8,7.2
		c-1.4,2.2-4.3,2.8-6.5,1.4c-2.2-1.4-2.8-4.3-1.4-6.5c0.3-0.5,7.6-11.5,22.7-11.5c15.1,0,22.4,11.1,22.7,11.5
		c1.4,2.2,0.8,5.1-1.4,6.5C231.4,124.4,230.6,124.6,229.7,124.6"/>
	<path class="st0" d="M131.4,64.5c0-1.6-0.3-2.9-1-3.8c-0.7-0.9-1.8-1.8-3.3-2.6c-3-1.3-5.2-2.6-6.6-3.8c-1.4-1.2-2.5-2.6-3.2-4.2
		c-0.7-1.6-1.1-3.4-1.1-5.6c0-3.2,0.9-5.9,2.7-8c1.8-2.1,4.2-3.4,7.1-3.8v-6.3h4.4v6.4c2.9,0.6,5.2,2,6.8,4.4
		c1.6,2.4,2.4,5.4,2.4,9.1h-8.3c0-2.3-0.3-4.1-1-5.2c-0.7-1.1-1.5-1.7-2.6-1.7c-1,0-1.8,0.4-2.4,1.3c-0.6,0.9-0.9,2.1-0.9,3.7
		c0,1.4,0.3,2.5,0.9,3.4c0.6,0.9,1.8,1.9,3.4,2.9c3.1,1.5,5.4,2.8,6.7,4c1.4,1.2,2.4,2.6,3.1,4.1c0.7,1.5,1,3.4,1,5.5
		c0,3.3-0.9,6-2.6,8c-1.7,2.1-4.2,3.3-7.2,3.7V82h-4.4v-5.8c-3.4-0.5-6-1.9-7.8-4.3c-1.8-2.4-2.7-5.6-2.7-9.5h8.3
		c0,2.3,0.4,4.1,1.1,5.3c0.7,1.2,1.9,1.9,3.3,1.9c1.2,0,2.1-0.4,2.8-1.3S131.4,66.1,131.4,64.5"/>
</g>
</svg>
