<?xml version="1.0" encoding="utf-8"?>
<!-- Generator: Adobe Illustrator 19.0.1, SVG Export Plug-In . SVG Version: 6.00 Build 0)  -->
<svg version="1.1" id="Слой_1" xmlns="http://www.w3.org/2000/svg" xmlns:xlink="http://www.w3.org/1999/xlink" x="0px" y="0px"
	 viewBox="0 0 290.6 290.6" style="enable-background:new 0 0 290.6 290.6;" xml:space="preserve">
<style type="text/css">
	.st0{clip-path:url(#SVGID_2_);fill:#FFFFFF;}
</style>
<g>
	<defs>
		<rect id="SVGID_1_" width="290.6" height="290.6"/>
	</defs>
	<clipPath id="SVGID_2_">
		<use xlink:href="#SVGID_1_"  style="overflow:visible;"/>
	</clipPath>
	<path class="st0" d="M267.7,9.4h18.2V0h-18.8L144.8,28.1H44.3C19.9,28.1,0,48,0,72.4v61.5c0,24.4,19.9,44.3,44.3,44.3h7.3v97.6
		c0,8.2,6.7,14.9,14.9,14.9h21.8c8.2,0,14.9-6.7,14.9-14.9v-60.1h16.8c6.2,0,11.3-5.1,11.3-11.3c0-3-1.2-5.9-3.3-8l-5.5-5.5
		c-0.4-0.4-0.6-0.9-0.6-1.4v-11.3h22.9l121.4,28l19.8,0.1v-9.4h-18.2L150,169.7V36.5L267.7,9.4z M44.3,168.8
		c-19.2,0-34.9-15.7-34.9-34.9V72.4c0-19.2,15.7-34.9,34.9-34.9h96.4v131.3h-37.5H51.6L44.3,168.8L44.3,168.8z M93.8,275.7
		c0,3-2.5,5.5-5.5,5.5H66.5c-3,0-5.5-2.5-5.5-5.5v-97.6h32.8V275.7z M115.8,197.4l5.5,5.5c0.4,0.4,0.6,0.9,0.6,1.4
		c0,1.1-0.9,1.9-1.9,1.9h-16.8v-28.1h9.4v11.3C112.5,192.4,113.7,195.3,115.8,197.4"/>
	<path class="st0" d="M107.8,112.5c0-2.8-0.8-5.3-2.2-7.5l9.7-16.1c0.6,0.1,1.3,0.2,1.9,0.2c7.8,0,14.1-6.3,14.1-14.1
		c0-7.8-6.3-14.1-14.1-14.1s-14.1,6.3-14.1,14.1c0,3.7,1.5,7,3.8,9.6l-8.8,14.7c-1.4-0.5-2.8-0.8-4.4-0.8c-3.8,0-7.2,1.5-9.7,4
		l-9.6-4.8c0.4-1.2,0.6-2.5,0.6-3.8c0-7.8-6.3-14.1-14.1-14.1S46.9,86,46.9,93.8c0,2.6,0.8,5.1,2.1,7.2l-11.4,17.1
		c-1.5-0.5-3.1-0.9-4.7-0.9c-7.8,0-14.1,6.3-14.1,14.1c0,7.8,6.3,14.1,14.1,14.1s14.1-6.3,14.1-14.1c0-2.6-0.8-5.1-2.1-7.2
		l11.4-17.1c1.5,0.5,3.1,0.9,4.7,0.9c3,0,5.7-0.9,8-2.5l11,5.5c-0.1,0.6-0.2,1.1-0.2,1.7c0,7.8,6.3,14.1,14.1,14.1
		S107.8,120.3,107.8,112.5 M117.2,70.3c2.6,0,4.7,2.1,4.7,4.7c0,2.6-2.1,4.7-4.7,4.7s-4.7-2.1-4.7-4.7
		C112.5,72.4,114.6,70.3,117.2,70.3 M32.8,135.9c-2.6,0-4.7-2.1-4.7-4.7c0-2.6,2.1-4.7,4.7-4.7s4.7,2.1,4.7,4.7
		C37.5,133.8,35.4,135.9,32.8,135.9 M56.3,93.8c0-2.6,2.1-4.7,4.7-4.7c2.6,0,4.7,2.1,4.7,4.7c0,2.6-2.1,4.7-4.7,4.7
		C58.3,98.4,56.3,96.3,56.3,93.8 M93.8,117.2c-2.6,0-4.7-2.1-4.7-4.7c0-2.6,2.1-4.7,4.7-4.7c2.6,0,4.7,2.1,4.7,4.7
		C98.4,115.1,96.3,117.2,93.8,117.2"/>
	<rect x="267.2" class="st0" width="23.4" height="206.3"/>
</g>
</svg>
