<?xml version="1.0" encoding="utf-8"?>
<!-- Generator: Adobe Illustrator 19.0.1, SVG Export Plug-In . SVG Version: 6.00 Build 0)  -->
<svg version="1.1" id="Слой_1" xmlns="http://www.w3.org/2000/svg" xmlns:xlink="http://www.w3.org/1999/xlink" x="0px" y="0px"
	 viewBox="0 0 262.5 290.6" style="enable-background:new 0 0 262.5 290.6;" xml:space="preserve">
<style type="text/css">
	.st0{clip-path:url(#SVGID_2_);fill:#FFFFFF;}
</style>
<g>
	<defs>
		<rect id="SVGID_1_" width="262.5" height="290.6"/>
	</defs>
	<clipPath id="SVGID_2_">
		<use xlink:href="#SVGID_1_"  style="overflow:visible;"/>
	</clipPath>
	<path class="st0" d="M201.6,28.1h-38.4c-1.9-5.4-7.1-9.4-13.2-9.4h-14.1v-4.7c0-7.8-6.3-14.1-14.1-14.1H93.8
		C86,0,79.7,6.3,79.7,14.1v4.7H65.6c-6.1,0-11.3,3.9-13.2,9.4H14.1C6.3,28.1,0,34.4,0,42.2v234.4c0,7.8,6.3,14.1,14.1,14.1h187.5
		c7.8,0,14.1-6.3,14.1-14.1V42.2C215.6,34.4,209.3,28.1,201.6,28.1 M60.9,32.8c0-2.6,2.1-4.7,4.7-4.7h23.4V14.1
		c0-2.6,2.1-4.7,4.7-4.7h28.1c2.6,0,4.7,2.1,4.7,4.7v14.1H150c2.6,0,4.7,2.1,4.7,4.7v14.1c0,2.6-2.1,4.7-4.7,4.7H65.6
		c-2.6,0-4.7-2.1-4.7-4.7L60.9,32.8L60.9,32.8z M206.3,276.6c0,2.6-2.1,4.7-4.7,4.7H14.1c-2.6,0-4.7-2.1-4.7-4.7V42.2
		c0-2.6,2.1-4.7,4.7-4.7h37.5v9.4c0,7.8,6.3,14.1,14.1,14.1H150c7.8,0,14.1-6.3,14.1-14.1v-9.4h37.5c2.6,0,4.7,2.1,4.7,4.7
		L206.3,276.6L206.3,276.6z"/>
	<path class="st0" d="M159.4,131.5h-46.9v-9.4h14.1V89.3H89.1v32.8h14.1v9.4H56.3v18.8H42.2v32.8h37.5v-32.8H65.6v-9.4h37.5v9.4
		H89.1v32.8h37.5v-32.8h-14.1v-9.4H150v9.4h-14.1v32.8H150v9.4h-46.9v18.8H89.1V244h37.5v-32.8h-14.1v-9.4h46.9v-18.8h14.1v-32.8
		h-14.1L159.4,131.5L159.4,131.5z M98.4,98.7h18.8v14.1H98.4V98.7z M70.3,173.7H51.6v-14.1h18.8V173.7z M117.2,173.7H98.4v-14.1
		h18.8V173.7z M117.2,234.6H98.4v-14.1h18.8V234.6z M164.1,173.7h-18.8v-14.1h18.8V173.7z"/>
	<path class="st0" d="M248.4,32.8c-7.8,0-14.1,6.3-14.1,14.1v9.4v9.4V75v9.4v160.1l14.1,42.2l14.1-42.2V84.4V75v-9.4v-9.4v-9.4
		C262.5,39.1,256.2,32.8,248.4,32.8 M245.6,248.4h5.7l-2.9,8.6L245.6,248.4z M253.1,239.1h-9.4V84.4h9.4V239.1z M253.1,75h-9.4v-9.4
		h9.4V75z M243.8,56.3v-9.4c0-2.6,2.1-4.7,4.7-4.7c2.6,0,4.7,2.1,4.7,4.7v9.4H243.8z"/>
</g>
</svg>
