<?xml version="1.0" encoding="utf-8"?>
<!-- Generator: Adobe Illustrator 19.0.1, SVG Export Plug-In . SVG Version: 6.00 Build 0)  -->
<svg version="1.1" id="Слой_1" xmlns="http://www.w3.org/2000/svg" xmlns:xlink="http://www.w3.org/1999/xlink" x="0px" y="0px"
	 viewBox="0 0 290.6 290.6" style="enable-background:new 0 0 290.6 290.6;" xml:space="preserve">
<style type="text/css">
	.st0{clip-path:url(#SVGID_2_);fill:#FFFFFF;}
</style>
<g>
	<defs>
		<rect id="SVGID_1_" width="290.6" height="290.6"/>
	</defs>
	<clipPath id="SVGID_2_">
		<use xlink:href="#SVGID_1_"  style="overflow:visible;"/>
	</clipPath>
	<path class="st0" d="M271.9,42.2c-10.3,0-18.8,8.4-18.8,18.8c0,5.5,2.4,10.4,6.3,13.9l-49,89.8c-1.4-0.3-2.7-0.5-4.2-0.5
		c-6.6,0-12.4,3.4-15.7,8.6l-12.4-3.9v-9.4h4.7V150h-4.7v-9.4h4.7v-9.4h-4.7v-9.4h4.7c12.9,0,23.4-10.5,23.4-23.4
		c0-10.5-6.9-19.4-16.4-22.4l7-14V0h-28.1v23.4h-9.4V0h-28.1v23.4h-9.4V0H93.8v62l7,14c-9.5,3-16.4,11.9-16.4,22.4
		c0,12.9,10.5,23.4,23.4,23.4h4.7v9.4h-4.7v9.4h4.7v7.2l-14.3-4.6c0.1-0.9,0.3-1.7,0.3-2.7c0-10.3-8.4-18.7-18.8-18.7
		s-18.8,8.4-18.8,18.7c0,4.8,1.9,9.2,4.9,12.5l-41.1,44.8c-1.9-0.6-3.9-1.1-6-1.1C8.4,196.9,0,205.3,0,215.6s8.4,18.8,18.8,18.8
		s18.8-8.4,18.8-18.8c0-4.8-1.9-9.2-4.9-12.5l41.1-44.8c1.9,0.6,3.9,1.1,5.9,1.1c6.1,0,11.4-2.9,14.8-7.4l13.3,4.2v3.2h4.7v14.1
		c0,40.6-22.5,76.8-22.7,77.2l-0.9,1.5l5.5,38.5h101.9l5.5-38.5l-0.9-1.5c-0.2-0.3-20.8-33.3-22.5-72l9.3,3c0,0.4-0.1,0.8-0.1,1.2
		c0,10.3,8.4,18.8,18.8,18.8s18.8-8.4,18.8-18.8c0-5.5-2.4-10.4-6.3-13.9l49-89.8c1.4,0.3,2.7,0.5,4.2,0.5
		c10.3,0,18.8-8.4,18.8-18.8C290.6,50.6,282.2,42.2,271.9,42.2 M18.8,225c-5.2,0-9.4-4.2-9.4-9.4s4.2-9.4,9.4-9.4
		c5.2,0,9.4,4.2,9.4,9.4C28.1,220.8,23.9,225,18.8,225 M79.7,150c-5.2,0-9.4-4.2-9.4-9.4c0-5.2,4.2-9.4,9.4-9.4s9.4,4.2,9.4,9.4
		C89.1,145.8,84.9,150,79.7,150 M107.8,112.5c-7.8,0-14.1-6.3-14.1-14.1s6.3-14.1,14.1-14.1h7.6h44V75h-48.7l-7.6-15.2V9.4h9.4v23.4
		h28.1V9.4h9.4v23.4h28.1V9.4h9.4v50.5l-12.3,24.5h7.6c7.8,0,14.1,6.3,14.1,14.1c0,7.8-6.3,14.1-14.1,14.1h-4.7h-65.6L107.8,112.5
		L107.8,112.5z M121.9,121.9h46.9v9.4h-46.9V121.9z M168.8,150h-46.9v-9.4h46.9V150z M188.1,281.3h-85.6l-3.3-23.4h64.9v-9.4h-62.3
		c6.9-13,20.1-42.2,20.1-75v-14.1h46.9v14.1c0,39.3,18.8,73.2,23.2,80.7L188.1,281.3z M206.3,192.2c-5.2,0-9.4-4.2-9.4-9.4
		c0-5.2,4.2-9.4,9.4-9.4s9.4,4.2,9.4,9.4C215.6,188,211.4,192.2,206.3,192.2 M271.9,70.3c-5.2,0-9.4-4.2-9.4-9.4
		c0-5.2,4.2-9.4,9.4-9.4c5.2,0,9.4,4.2,9.4,9.4C281.3,66.1,277,70.3,271.9,70.3"/>
</g>
</svg>
