<?xml version="1.0" encoding="utf-8"?>
<!-- Generator: Adobe Illustrator 22.0.1, SVG Export Plug-In . SVG Version: 6.00 Build 0)  -->
<svg version="1.1" id="Layer_1" xmlns="http://www.w3.org/2000/svg" xmlns:xlink="http://www.w3.org/1999/xlink" x="0px" y="0px"
	 viewBox="0 0 70 87.5" style="enable-background:new 0 0 70 87.5;" xml:space="preserve">
<style type="text/css">
	.st0{fill:#0E64ED;}
	.st1{fill:#0E64ED;stroke:#0E64ED;stroke-miterlimit:10;}
	.st2{fill:none;stroke:#0E64ED;stroke-miterlimit:10;}
</style>
<g>
	<g>
		<g>
			<g>
				<path class="st0" d="M21.7,57.5c-0.3,0-0.5-0.1-0.7-0.3c-0.4-0.4-0.4-1,0-1.4l5.9-5.9c0.4-0.4,1-0.4,1.4,0s0.4,1,0,1.4l-5.9,5.9
					C22.2,57.4,21.9,57.5,21.7,57.5z"/>
			</g>
		</g>
		<g>
			<g>
				<path class="st0" d="M36.2,54.6c-0.6,0-1-0.4-1-1c0-0.3,0.1-0.6,0.4-0.8L51,37.4c0.4-0.4,1-0.4,1.4,0c0.4,0.4,0.4,1,0,1.4
					L36.9,54.3C36.8,54.5,36.5,54.6,36.2,54.6z"/>
			</g>
		</g>
		<g>
			<g>
				<path class="st0" d="M33.4,54.6c-0.3,0-0.5-0.1-0.7-0.3l-3-3c-0.4-0.4-0.4-1,0-1.4s1-0.4,1.4,0l3,3c0.4,0.4,0.4,1,0,1.4
					C33.9,54.5,33.6,54.6,33.4,54.6z"/>
			</g>
		</g>
		<g>
			<g>
				<path class="st0" d="M34.8,58c-1.7,0-3-1.3-3-3s1.3-3,3-3s3,1.3,3,3S36.5,58,34.8,58z M34.8,54c-0.6,0-1,0.4-1,1s0.4,1,1,1
					s1-0.4,1-1S35.4,54,34.8,54z"/>
			</g>
		</g>
		<g>
			<g>
				<path class="st0" d="M29,52.2c-1.7,0-3-1.3-3-3s1.3-3,3-3s3,1.3,3,3S30.7,52.2,29,52.2z M29,48.2c-0.6,0-1,0.4-1,1s0.4,1,1,1
					s1-0.4,1-1S29.6,48.2,29,48.2z"/>
			</g>
		</g>
	</g>
	<g>
		<g>
			<path class="st0" d="M20.3,60.9c-1.7,0-3-1.3-3-3s1.3-3,3-3s3,1.3,3,3S21.9,60.9,20.3,60.9z M20.3,56.9c-0.6,0-1,0.4-1,1
				s0.4,1,1,1s1-0.4,1-1S20.8,56.9,20.3,56.9z"/>
		</g>
	</g>
	<g>
		<g>
			<path class="st0" d="M51.7,44.8c-0.6,0-1-0.4-1-1v-4.8h-4.8c-0.6,0-1-0.4-1-1s0.4-1,1-1h5.8c0.6,0,1,0.4,1,1v5.8
				C52.7,44.4,52.3,44.8,51.7,44.8z"/>
		</g>
	</g>
</g>
<g>
	<g>
		<g>
			<path class="st1" d="M32.8,31.1c1-1.1,0.9-2.8-0.2-3.8c-0.3-0.2-0.6-0.4-0.9-0.5v-2h-1.8v1.8h-1.8v-1.8h-1.8v1.8h-0.9
				c-0.5,0-0.9,0.4-0.9,0.9v7.2c0,0.5,0.4,0.9,0.9,0.9h0.9v1.8h1.8v-1.8h1.8v1.8h1.8v-2c1.1-0.4,1.8-1.4,1.8-2.5
				C33.5,32.2,33.2,31.6,32.8,31.1z M30.8,33.8h-4.5V32h4.5c0.5,0,0.9,0.4,0.9,0.9S31.3,33.8,30.8,33.8z M30.8,30.2h-4.5v-1.8h4.5
				c0.5,0,0.9,0.4,0.9,0.9S31.3,30.2,30.8,30.2z"/>
		</g>
	</g>
	<circle class="st2" cx="29" cy="31.1" r="9.9"/>
</g>
</svg>
