<?xml version="1.0" encoding="utf-8"?>
<!-- Generator: Adobe Illustrator 22.1.0, SVG Export Plug-In . SVG Version: 6.00 Build 0)  -->
<svg version="1.1" id="Capa_1" xmlns="http://www.w3.org/2000/svg" xmlns:xlink="http://www.w3.org/1999/xlink" x="0px" y="0px"
	 viewBox="0 0 480 480" style="enable-background:new 0 0 480 480;" xml:space="preserve">
<style type="text/css">
	.st0{fill:#073277;}
</style>
<g>
	<g>
		<path class="st0" d="M153.9,184c8.8-9.8,8-24.9-1.8-33.7c-2.4-2.1-5.1-3.7-8.1-4.8V128h-16v16h-16v-16H96v16h-8c-4.4,0-8,3.6-8,8
			v64c0,4.4,3.6,8,8,8h8v16h16v-16h16v16h16v-17.5c9.6-3.4,16-12.4,16-22.5C160,194.1,157.8,188.4,153.9,184z M136,208H96v-16h40
			c4.4,0,8,3.6,8,8S140.4,208,136,208z M136,176H96v-16h40c4.4,0,8,3.6,8,8S140.4,176,136,176z"/>
	</g>
</g>
<g>
	<g>
		<path class="st0" d="M440,0H192c-22.1,0-40,17.9-40,40v45.1c-10.3-3.4-21.1-5.1-32-5.1C62.6,79.9,16,126.4,16,183.8
			c0,35.9,18.4,69.2,48.8,88.2H40c-4.4,0-8,3.6-8,8v40H8c-4.4,0-8,3.6-8,8v48c0,4.4,3.6,8,8,8h24v32H8c-4.4,0-8,3.6-8,8v48
			c0,4.4,3.6,8,8,8h176c0.8,0,1.6-0.2,2.4-0.5c1.9,0.3,3.7,0.5,5.6,0.5h248c22.1,0,40-17.9,40-40V40C480,17.9,462.1,0,440,0z
			 M32,184c0.1-48.5,39.5-87.8,88-87.7s87.8,39.5,87.7,88c-0.1,48.4-39.3,87.6-87.7,87.7C71.4,271.9,32.1,232.6,32,184z M48,288h160
			v32H48V288z M16,368v-32h160v32H16z M176,464H16v-32h160V464z M48,416v-32h160v32H48z M464,440c0,13.3-10.7,24-24,24H192v-32h24
			c4.4,0,8-3.6,8-8v-8h240V440z M464,400H224v-24c0-4.4-3.6-8-8-8h-24v-32h24c4.4,0,8-3.6,8-8v-48c0-4.4-3.6-8-8-8h-40.7
			c0.2-0.1,0.3-0.2,0.4-0.3c3.2-2.1,6.4-4.3,9.4-6.8c0.5-0.4,1.1-0.9,1.6-1.3c2.9-2.4,5.7-5,8.3-7.7c0.4-0.5,0.9-0.9,1.3-1.4
			c2.6-2.8,5.1-5.8,7.4-8.9c0.2-0.3,0.4-0.6,0.6-0.9c2.3-3.1,4.4-6.4,6.3-9.8c0.1-0.3,0.3-0.5,0.4-0.8c1.9-3.4,3.5-6.9,5-10.5
			c0.2-0.6,0.5-1.1,0.7-1.7c1.4-3.5,2.6-7.1,3.6-10.8c0.2-0.7,0.3-1.3,0.5-2c0.9-3.7,1.7-7.5,2.2-11.3c0.1-0.5,0.1-1.1,0.2-1.6
			c0.5-4.1,0.8-8.2,0.8-12.3c0-2.5-0.1-4.9-0.3-7.4c-0.1-0.8-0.2-1.6-0.3-2.4c-0.2-1.6-0.3-3.2-0.5-4.9c-0.1-1-0.3-1.9-0.5-2.8
			c-0.2-1.4-0.5-2.9-0.8-4.3c-0.2-1-0.5-2-0.7-3c-0.3-1.4-0.7-2.7-1-4c-0.3-1-0.6-2-1-3c-0.4-1.3-0.8-2.6-1.3-3.8
			c-0.4-1-0.8-2-1.2-3c-0.5-1.2-1-2.5-1.5-3.7c-0.4-1-0.9-1.9-1.4-2.9c-0.6-1.2-1.2-2.4-1.8-3.5c-0.5-1-1.1-1.9-1.6-2.8
			c-0.7-1.1-1.3-2.3-2-3.4c-0.6-0.9-1.2-1.8-1.8-2.7c-0.7-1.1-1.5-2.2-2.2-3.2c-0.6-0.9-1.3-1.8-2-2.6c-0.8-1-1.6-2.1-2.4-3
			c-0.7-0.8-1.4-1.7-2.2-2.5c-0.9-1-1.8-1.9-2.7-2.9c-0.8-0.8-1.5-1.6-2.3-2.3c-0.9-0.9-1.9-1.8-2.9-2.7c-0.8-0.7-1.6-1.5-2.5-2.2
			c-1-0.9-2-1.7-3.1-2.5c-0.9-0.7-1.7-1.4-2.6-2c-1.1-0.8-2.2-1.5-3.3-2.3c-0.9-0.6-1.8-1.2-2.8-1.8c-1.1-0.7-2.3-1.4-3.5-2.1
			c-1-0.6-1.9-1.1-2.9-1.6c-0.4-0.2-0.7-0.4-1.1-0.6V80h296v320H464z M464,64H168V40c0-13.3,10.7-24,24-24h248c13.3,0,24,10.7,24,24
			V64z"/>
	</g>
</g>
<g>
	<g>
		<rect x="304" y="32" class="st0" width="16" height="16"/>
	</g>
</g>
<g>
	<g>
		<path class="st0" d="M296,272h-32c-4.4,0-8,3.6-8,8v88c0,4.4,3.6,8,8,8h32c4.4,0,8-3.6,8-8v-88C304,275.6,300.4,272,296,272z
			 M288,360h-16v-72h16V360z"/>
	</g>
</g>
<g>
	<g>
		<path class="st0" d="M360,200h-32c-4.4,0-8,3.6-8,8v160c0,4.4,3.6,8,8,8h32c4.4,0,8-3.6,8-8V208C368,203.6,364.4,200,360,200z
			 M352,360h-16V216h16V360z"/>
	</g>
</g>
<g>
	<g>
		<path class="st0" d="M424,120h-32c-4.4,0-8,3.6-8,8v240c0,4.4,3.6,8,8,8h32c4.4,0,8-3.6,8-8V128C432,123.6,428.4,120,424,120z
			 M416,360h-16V136h16V360z"/>
	</g>
</g>
<g>
	<g>
		<path class="st0" d="M360,104h-32v16h14.4l-38.8,44.3l-18-18c-3.1-3.1-8.2-3.1-11.3,0l-32,32l11.3,11.3l26.3-26.3l18.3,18.3
			c1.6,1.6,3.7,2.4,5.9,2.3c2.2-0.1,4.3-1.1,5.8-2.7l42-48V144h16v-32C368,107.6,364.4,104,360,104z"/>
	</g>
</g>
<g>
	<g>
		<path class="st0" d="M48,0H32c0,17.7-14.3,32-32,32v16c17.7,0,32,14.3,32,32h16c0-17.7,14.3-32,32-32V32C62.3,32,48,17.7,48,0z
			 M40,53.6c-3.5-5.4-8.1-10-13.5-13.6c5.4-3.6,9.9-8.2,13.5-13.6c3.5,5.4,8.1,10,13.5,13.6C48.1,43.6,43.5,48.2,40,53.6z"/>
	</g>
</g>
</svg>
