<?xml version="1.0" encoding="utf-8"?>
<!-- Generator: Adobe Illustrator 22.1.0, SVG Export Plug-In . SVG Version: 6.00 Build 0)  -->
<svg version="1.1" id="Capa_1" xmlns="http://www.w3.org/2000/svg" xmlns:xlink="http://www.w3.org/1999/xlink" x="0px" y="0px"
	 viewBox="0 0 512 512" style="enable-background:new 0 0 512 512;" xml:space="preserve">
<style type="text/css">
	.st0{fill:#073277;}
</style>
<g>
	<g>
		<path class="st0" d="M489.5,52.8h-70c6.7-5.2,11-13.3,11-22.5c0-15.7-12.8-28.5-28.5-28.5s-28.5,12.8-28.5,28.5
			c0,4.8,1.2,9.3,3.3,13.3l-10,9.2H229.2c-4.3-10.2-14.4-17.3-26.2-17.3s-21.8,7.2-26.2,17.3H22.5C10.1,52.8,0,62.9,0,75.3v55.4
			c0,4.1,3.4,7.5,7.5,7.5s7.5-3.4,7.5-7.5V75.3c0-4.1,3.4-7.5,7.5-7.5h152.3c0.4,2.9,1.2,5.6,2.4,8.2L114,133.3
			c-4.5-2.9-9.8-4.6-15.5-4.6c-15.7,0-28.5,12.8-28.5,28.5s12.8,28.5,28.5,28.5s28.5-12.8,28.5-28.5c0-4.5-1.1-8.8-3-12.6l63-57.1
			c4.6,3.1,10.1,5,16.1,5c8.1,0,15.3-3.4,20.5-8.8l51.1,30.3c-0.4,1.8-0.6,3.7-0.6,5.7c0,15.7,12.8,28.5,28.5,28.5
			s28.5-12.8,28.5-28.5c0-4.1-0.9-8-2.4-11.5l44.1-40.4h116.8c4.1,0,7.5,3.4,7.5,7.5v185.4c0,4.1,3.4,7.5,7.5,7.5s7.5-3.4,7.5-7.5
			V75.3C512,62.9,501.9,52.8,489.5,52.8z M98.4,170.5c-7.4,0-13.5-6-13.5-13.5c0-7.4,6-13.5,13.5-13.5s13.5,6,13.5,13.5
			S105.8,170.5,98.4,170.5z M203,77.4c-7.4,0-13.5-6-13.5-13.5c0-7.4,6-13.5,13.5-13.5s13.5,6,13.5,13.5S210.4,77.4,203,77.4z
			 M302.5,133.1c-7.4,0-13.5-6-13.5-13.5c0-7.4,6-13.5,13.5-13.5s13.5,6,13.5,13.5C316,127,309.9,133.1,302.5,133.1z M319.1,96.5
			c-4.7-3.3-10.4-5.3-16.5-5.3c-8.4,0-15.9,3.6-21.1,9.4l-50.7-30.1c0.2-0.9,0.4-1.7,0.5-2.6h119.2L319.1,96.5z M402,43.8
			c-7.4,0-13.5-6-13.5-13.5s6-13.5,13.5-13.5s13.5,6,13.5,13.5C415.5,37.7,409.5,43.8,402,43.8z"/>
	</g>
</g>
<g>
	<g>
		<path class="st0" d="M512,290.7c0-4.1-3.4-7.5-7.5-7.5s-7.5,3.4-7.5,7.5v56.4h-55.2V169.4v-30.6v-31c0-4.1-3.4-7.5-7.5-7.5h-56.4
			c-4.1,0-7.5,3.4-7.5,7.5v31v30.6v177.7h-28.1v-38.2v-30.6v-31c0-4.1-3.4-7.5-7.5-7.5h-56.4c-4.1,0-7.5,3.4-7.5,7.5v31v30.6v38.2
			h-28.1v-135v-30.6v-31c0-4.1-3.4-7.5-7.5-7.5h-56.4c-4.1,0-7.5,3.4-7.5,7.5v31v30.6v42c0,4.1,3.4,7.5,7.5,7.5s7.5-3.4,7.5-7.5
			v-34.5h41.4v127.5h-41.4v-63c0-4.1-3.4-7.5-7.5-7.5s-7.5,3.4-7.5,7.5v63h-28.1v-38.2v-30.6v-31c0-4.1-3.4-7.5-7.5-7.5H79.3
			c-4.1,0-7.5,3.4-7.5,7.5v31v30.6v38.2H15V160.7c0-4.1-3.4-7.5-7.5-7.5S0,156.6,0,160.7V409c0,12.4,10.1,22.5,22.5,22.5h164.3
			l-4.3,37.3h-35.6c-4.1,0-7.5,3.4-7.5,7.5v26.3c0,4.1,3.4,7.5,7.5,7.5H365c4.1,0,7.5-3.4,7.5-7.5v-26.3c0-4.1-3.4-7.5-7.5-7.5
			h-35.6l-4.3-37.3h164.3c12.4,0,22.5-10.1,22.5-22.5v-54.2v-0.1L512,290.7L512,290.7z M385.3,115.2h41.4v16h-41.4V115.2z
			 M385.3,146.3h41.4v15.6h-41.4V146.3z M385.3,176.9h41.4v170.2h-41.4V176.9z M285.8,254.8h41.4v16h-41.4V254.8z M285.8,285.8h41.4
			v15.6h-41.4V285.8z M285.8,316.4h41.4v30.7h-41.4V316.4z M186.3,174v-16h41.4v16H186.3z M186.3,204.6V189h41.4v15.6H186.3z
			 M86.8,254.8h41.4v16H86.8V254.8z M86.8,285.8h41.4v15.6H86.8V285.8z M86.8,316.4h41.4v30.7H86.8V316.4z M357.6,483.8v11.3H154.4
			v-11.3H357.6z M197.7,468.8l4.3-37.3h108.1l4.3,37.3H197.7z M489.5,416.5h-467c-4.1,0-7.5-3.4-7.5-7.5v-46.6h482V409l0,0
			C497,413.2,493.6,416.5,489.5,416.5z"/>
	</g>
</g>
</svg>
