<?xml version="1.0" encoding="utf-8"?>
<!-- Generator: Adobe Illustrator 22.1.0, SVG Export Plug-In . SVG Version: 6.00 Build 0)  -->
<svg version="1.1" id="Capa_1" xmlns="http://www.w3.org/2000/svg" xmlns:xlink="http://www.w3.org/1999/xlink" x="0px" y="0px"
	 viewBox="0 0 512 512" style="enable-background:new 0 0 512 512;" xml:space="preserve">
<style type="text/css">
	.st0{fill:#073277;}
</style>
<g>
	<g>
		<path class="st0" d="M282.5,437h-53.3c-5.5,0-10,4.5-10,10s4.5,10,10,10h53.3c5.5,0,10-4.5,10-10S288.1,437,282.5,437z"/>
	</g>
</g>
<g>
	<g>
		<path class="st0" d="M379.5,465L379.5,465c-5.5,0-10,4.5-10,10s4.5,10,10,10s10-4.5,10-10S385,465,379.5,465z"/>
	</g>
</g>
<g>
	<g>
		<path class="st0" d="M502,409h-12V154.6c0-19.6-15.4-35.6-34.4-35.6h-23.7V37c0-5.5-4.5-10-10-10h-56c-5.5,0-10,4.5-10,10v82h-54
			c-5.5,0-10,4.5-10,10s4.5,10,10,10h54v270h-16V200.9c0-5.5-4.5-10-10-10h-56c-5.5,0-10,4.5-10,10V409h-16V282.8
			c0-5.5-4.5-10-10-10h-56c-5.5,0-10,4.5-10,10V409h-16v-64.4c0-5.5-4.5-10-10-10h-56c-5.5,0-10,4.5-10,10V409H42V306
			c0-5.5-4.5-10-10-10s-10,4.5-10,10v103H10c-5.5,0-10,4.5-10,10v17c0,27,22,49,49,49h286.9c5.5,0,10-4.5,10-10s-4.5-10-10-10H49
			c-16,0-29-13-29-29v-7h69.9h56h36h56h36h56h36h56H492v7c0,16-13,29-29,29h-40.5c-5.5,0-10,4.5-10,10s4.5,10,10,10H463
			c27,0,49-22,49-49v-17C512,413.5,507.5,409,502,409z M135.9,409h-36v-54.4h36V409z M227.9,409h-36V292.8h36V409z M319.9,409h-36
			V210.9h36V409z M411.9,409h-36V47h36V409z M470,409h-38.1V139h23.7c8,0,14.4,7,14.4,15.6V409L470,409z"/>
	</g>
</g>
<g>
	<g>
		<path class="st0" d="M171.9,27c-51.2,0-92.9,41.1-94,92H56.4c-19,0-34.4,16-34.4,35.6V225c0,5.5,4.5,10,10,10s10-4.5,10-10v-70.4
			c0-8.6,6.5-15.6,14.4-15.6h23.2c8.4,43.2,46.6,76,92.3,76c51.8,0,94-42.2,94-94S223.7,27,171.9,27z M171.9,195
			c-40.8,0-74-33.2-74-74s33.2-74,74-74s74,33.2,74,74S212.7,195,171.9,195z"/>
	</g>
</g>
<g>
	<g>
		<path class="st0" d="M39.1,257.3c-1.9-1.9-4.4-2.9-7.1-2.9c-2.6,0-5.2,1.1-7.1,2.9c-1.9,1.9-2.9,4.4-2.9,7.1
			c0,2.6,1.1,5.2,2.9,7.1c1.9,1.9,4.4,2.9,7.1,2.9c2.6,0,5.2-1.1,7.1-2.9c1.9-1.9,2.9-4.4,2.9-7.1C42,261.7,40.9,259.1,39.1,257.3z"
			/>
	</g>
</g>
<g>
	<g>
		<path class="st0" d="M171.9,111.7c-5.5,0-9.9-3.6-9.9-8.1s4.5-8.1,9.9-8.1s9.9,3.6,9.9,8.1c0,5.5,4.5,10,10,10s10-4.5,10-10
			c0-12.2-8.3-22.6-20-26.5c-0.1-5.4-4.5-9.8-10-9.8s-9.9,4.4-10,9.8c-11.6,3.9-20,14.3-20,26.5c0,15.5,13.4,28.1,29.9,28.1
			c5.5,0,9.9,3.6,9.9,8.1s-4.5,8.1-9.9,8.1s-9.9-3.6-9.9-8.1c0-5.5-4.5-10-10-10s-10,4.5-10,10c0,12.2,8.4,22.6,20,26.5
			c0.4,5.1,4.7,9.1,10,9.1s9.5-4,10-9.1c11.6-3.9,20-14.3,20-26.5C201.8,124.3,188.4,111.7,171.9,111.7z"/>
	</g>
</g>
</svg>
