<?xml version="1.0" encoding="utf-8"?>
<!-- Generator: Adobe Illustrator 22.1.0, SVG Export Plug-In . SVG Version: 6.00 Build 0)  -->
<svg version="1.1" id="Capa_1" xmlns="http://www.w3.org/2000/svg" xmlns:xlink="http://www.w3.org/1999/xlink" x="0px" y="0px"
	 viewBox="0 0 480.4 480.4" style="enable-background:new 0 0 480.4 480.4;" xml:space="preserve">
<style type="text/css">
	.st0{fill:#073277;}
</style>
<g>
	<g>
		<g>
			<path class="st0" d="M457.5,312.2c-9.5-9.7-21.4-16.8-34.4-20.7l0,0c8.4-74.1-29.2-145.7-94.9-180.9c-0.9-48.6-41-87.2-89.6-86.2
				c-47.3,0.9-85.3,39-86.2,86.2C86.6,145.8,49,217.5,57.4,291.5C15,304-9.2,348.5,3.3,390.9s57,66.6,99.4,54.1
				c13-3.8,24.9-11,34.4-20.7c62.2,42.4,144.1,42.4,206.3,0c31,31.5,81.6,32,113.1,1S488.5,343.7,457.5,312.2z M240.2,40.1
				c39.7,0,72,32.3,72,72c0,0.9,0,1.8-0.1,2.9c-1.8,39.7-35.4,70.5-75.1,68.8c-37.4-1.6-67.3-31.7-68.8-69c-0.1-0.8-0.1-1.7-0.1-2.6
				C168.3,72.4,200.5,40.2,240.2,40.1z M80.2,432.1c-35.3,0-64-28.7-64-64s28.7-64,64-64s64,28.7,64,64
				C144.2,403.5,115.6,432.1,80.2,432.1z M240.2,440.1c-33.2,0.1-65.6-9.8-93.1-28.3c24.2-36.8,13.9-86.3-22.9-110.4
				c-3.1-2-6.4-3.9-9.7-5.5c-0.7-3.7-1.3-7.4-1.6-11L97,286.5c0.1,1.2,0.3,2.4,0.5,3.5c-5.6-1.3-11.4-1.9-17.2-1.9
				c-2.4,0-4.8,0.2-7.1,0.4c-0.5-5.4-0.9-10.9-0.9-16.4c-0.1-59,30.8-113.8,81.5-144.1c1.5,8.2,4.1,16.1,7.8,23.6
				c-1.4,0.9-2.8,1.7-4.1,2.6l9.2,13.1c1.1-0.8,2.2-1.4,3.4-2.1c29.4,38.8,84.6,46.4,123.4,17c6.4-4.8,12.1-10.5,17-16.9
				c2.1,1.4,4.3,2.7,6.3,4.2l9.6-12.8c-2.4-1.8-4.8-3.5-7.3-5.1c3.7-7.4,6.3-15.3,7.8-23.5c50.7,30.3,81.6,85,81.5,144.1
				c0,5.4-0.4,10.9-0.9,16.4c-2.3-0.2-4.7-0.4-7.1-0.4c-6.2,0-12.4,0.8-18.5,2.2l-14.6-1.9c-0.3,2.5-0.8,5-1.3,7.5
				c-27.8,13.2-45.6,41.3-45.6,72.1c0,1.2,0.1,2.5,0.2,3.7c-2.9,2.3-5.9,4.6-8.9,6.6l8.9,13.3c1-0.6,1.9-1.4,2.9-2
				c2.2,7.8,5.6,15.3,10,22.1C305.8,430.4,273.4,440.2,240.2,440.1z M400.2,432.1c-35.3,0-64-28.7-64-64s28.7-64,64-64
				s64,28.7,64,64C464.2,403.5,435.6,432.1,400.2,432.1z"/>
			<path class="st0" d="M408.2,400.1c-7.7,0-15.2-2.9-20.9-8h28.9v-16h-38.9c-0.7-2.6-1.1-5.3-1.1-8h40v-16h-35.6
				c8-14,25.2-19.7,40-13.5l6.2-14.7c-24.4-10.3-52.6,1.2-62.9,25.6c-0.4,0.9-0.7,1.7-1,2.6h-10.8v16h8c0,2.7,0.3,5.4,0.7,8h-8.7v16
				h14.5c12.2,21.2,38.3,29.8,60.7,20l-6.4-14.7C417,399.2,412.6,400.1,408.2,400.1z"/>
			<path class="st0" d="M103.1,352.1c0.1-9.8-5.8-18.7-14.9-22.4v-9.6h-16v9.6c-9.1,3.7-15,12.6-14.9,22.4
				c-0.3,12.9,10,23.7,22.9,24c4.4,0.7,7.5,4.8,6.8,9.2c-0.5,3.5-3.3,6.3-6.8,6.8c-4.1-0.3-7.2-3.9-6.9-8h-16
				c-0.1,9.8,5.8,18.7,14.9,22.4v9.6h16v-9.6c9.1-3.7,15-12.6,14.9-22.4c0.3-12.9-10-23.7-22.9-24c-4.4-0.7-7.5-4.8-6.8-9.2
				c0.5-3.5,3.3-6.3,6.8-6.8c4.1,0.3,7.2,3.9,6.9,8H103.1z"/>
			<rect x="32.2" y="360.1" class="st0" width="16" height="16"/>
			<rect x="112.2" y="360.1" class="st0" width="16" height="16"/>
			<path class="st0" d="M208.2,168.1h16v-16h8v16h16v-16h8c13.2,0,24-10.7,24-23.9c0-1.6-0.2-3.2-0.5-4.8c-0.1-0.5-0.3-1-0.4-1.5
				c-0.2-1-0.5-1.9-0.9-2.8c-0.2-0.6-0.6-1.1-0.8-1.7c-0.4-0.8-0.8-1.6-1.2-2.3c-0.4-0.5-0.8-1-1.2-1.5s-0.7-1-1.1-1.5
				c0.4-0.5,0.8-1,1.2-1.5s0.8-1,1.2-1.5c0.5-0.8,0.9-1.5,1.3-2.4c0.3-0.5,0.6-1.1,0.8-1.6c0.3-0.9,0.6-1.9,0.9-2.8
				c0.1-0.5,0.3-1,0.4-1.5c0.3-1.5,0.4-3.1,0.4-4.6c0-13.3-10.7-24-24-24h-8v-16h-16v16h-8v-16h-16v16h-8v80h8L208.2,168.1
				L208.2,168.1z M216.2,88.1h40c4.4,0,8,3.6,8,8c0,2.2-0.9,4.2-2.5,5.7c-1.5,1.5-3.5,2.3-5.5,2.3h-40L216.2,88.1L216.2,88.1z
				 M216.2,120.1h40c4.4,0,8,3.6,8,8c0,2.2-0.9,4.2-2.5,5.7c-1.5,1.5-3.5,2.3-5.5,2.3h-40L216.2,120.1L216.2,120.1z"/>
			<path class="st0" d="M416.2,184.1h16c0-17.7,14.3-32,32-32v-16c-17.7,0-32-14.3-32-32h-16c0,17.7-14.3,32-32,32v16
				C401.9,152.1,416.2,166.5,416.2,184.1z M424.2,130.6c3.6,5.4,8.1,9.9,13.5,13.5c-5.4,3.6-9.9,8.1-13.5,13.5l-0.1-0.1
				c-3.5-5.3-8.1-9.8-13.3-13.3l-0.1-0.1C416.1,140.6,420.7,136,424.2,130.6z"/>
			<path class="st0" d="M64.2,136.1h16c0-17.7,14.3-32,32-32v-16c-17.7,0-32-14.3-32-32h-16c0,17.7-14.3,32-32,32v16
				C49.9,104.1,64.2,118.5,64.2,136.1z M72.2,82.6c3.6,5.3,8.1,9.9,13.5,13.5c-5.3,3.6-9.9,8.1-13.5,13.5l-0.1-0.1
				c-3.5-5.3-8.1-9.8-13.3-13.3l-0.1-0.1C64.1,92.6,68.7,88,72.2,82.6z"/>
			<path class="st0" d="M338.5,190.2l12.3-10.2c-3.6-4.3-7.5-8.5-11.6-12.3l-11,11.6C331.9,182.6,335.3,186.3,338.5,190.2z"/>
			<path class="st0" d="M355,215.3l14.3-7.1c-2.5-5.1-5.3-10-8.4-14.7l-13.4,8.8C350.2,206.5,352.7,210.8,355,215.3z"/>
			<path class="st0" d="M365,243.6l15.6-3.6c-1.3-5.5-2.8-10.9-4.7-16.2l-15.1,5.4C362.5,233.9,363.9,238.7,365,243.6z"/>
			<path class="st0" d="M368.2,272.1v1.3l16,0.3v-1.6c0-5.1-0.3-10.3-0.8-15.4l-15.9,1.7C368,263,368.2,267.6,368.2,272.1z"/>
			<path class="st0" d="M96.2,269.6l16,0.3c0.1-5,0.5-10,1.1-15l-15.9-2.2C96.8,258.3,96.3,263.9,96.2,269.6z"/>
			<path class="st0" d="M100.8,236.1l15.5,4c1.3-4.9,2.8-9.6,4.6-14.3L106,220C103.9,225.2,102.2,230.6,100.8,236.1z"/>
			<path class="st0" d="M113,204.6l14.1,7.5c2.4-4.4,5-8.7,7.8-12.8l-13.2-9.1C118.6,194.8,115.7,199.6,113,204.6z"/>
			<path class="st0" d="M132.3,176.8l12,10.6c3.3-3.8,6.9-7.3,10.6-10.7l-10.7-11.9C140,168.6,136,172.6,132.3,176.8z"/>
			<path class="st0" d="M190.8,407.4c5.3,1.9,10.7,3.6,16.2,4.9l3.7-15.6c-4.9-1.2-9.7-2.6-14.4-4.3L190.8,407.4z"/>
			<path class="st0" d="M225.5,399.3l-1.8,15.9c5.3,0.6,10.6,0.9,16,0.9h0.9l-0.3-16C235.3,400.1,230.4,399.9,225.5,399.3z"/>
			<path class="st0" d="M255.6,399.2l1.9,15.9c5.6-0.7,11.2-1.7,16.7-3l-3.8-15.5C265.5,397.8,260.6,398.6,255.6,399.2z"/>
			<path class="st0" d="M160.6,392.1c4.7,3.1,9.6,6,14.6,8.5l7.2-14.3c-4.5-2.3-8.8-4.8-13-7.6L160.6,392.1z"/>
			<path class="st0" d="M284.8,392.1l5.6,15c5.3-2,10.5-4.2,15.5-6.8l-7.3-14.2C294.1,388.4,289.5,390.4,284.8,392.1z"/>
		</g>
	</g>
</g>
</svg>
